<svg width="140" height="30" viewBox="0 0 158 57" fill="none" xmlns="http://www.w3.org/2000/svg">
<path d="M8.24609 56.5566C7.25326 56.5169 6.37956 56.0007 5.625 55.0078C4.87044 54.015 4.21517 52.7243 3.65918 51.1357C3.10319 49.5472 2.62663 47.7402 2.22949 45.7148C1.87207 43.6895 1.57422 41.6442 1.33594 39.5791C1.09766 37.4743 0.938802 35.4489 0.859375 33.5029C0.779948 31.5173 0.740234 29.7699 0.740234 28.2607C0.779948 25.8779 0.958659 23.4355 1.27637 20.9336C1.63379 18.3919 2.01107 16.0091 2.4082 13.7852C2.84505 11.5612 3.26204 9.59538 3.65918 7.8877C4.09603 6.1403 4.41374 4.90918 4.6123 4.19434C4.8903 3.04264 5.26758 2.26823 5.74414 1.87109C6.2207 1.43424 7.11426 1.17611 8.4248 1.09668H9.85449C10.2516 1.13639 10.6488 1.17611 11.0459 1.21582C11.443 1.25553 11.8005 1.35482 12.1182 1.51367C10.6885 4.37305 9.53678 7.27214 8.66309 10.2109C7.78939 13.1497 7.11426 16.0885 6.6377 19.0273C6.16113 21.9661 5.86328 24.8652 5.74414 27.7246C5.625 30.5443 5.60514 33.2845 5.68457 35.9453C5.764 38.0501 5.88314 40.016 6.04199 41.8428C6.20085 43.6299 6.45898 45.4567 6.81641 47.3232C7.17383 49.1501 7.59082 50.2025 8.06738 50.4805C8.54395 50.7585 9.04036 50.5599 9.55664 49.8848C10.0729 49.2493 10.5693 48.2962 11.0459 47.0254C11.5622 45.7943 11.999 44.5433 12.3564 43.2725C12.5947 42.4385 12.9521 41.2471 13.4287 39.6982C13.9053 38.1097 14.4414 36.3623 15.0371 34.4561C15.6328 32.5498 16.2484 30.5641 16.8838 28.499C17.5589 26.4339 18.1745 24.5277 18.7305 22.7803C19.2865 20.9932 19.763 19.4443 20.1602 18.1338C20.597 16.8232 20.8949 15.9495 21.0537 15.5127C21.292 14.8773 21.6097 14.0036 22.0068 12.8916C22.4437 11.7399 22.9004 10.5485 23.377 9.31738C23.8932 8.04655 24.4095 6.79557 24.9258 5.56445C25.4818 4.29362 25.998 3.18164 26.4746 2.22852C26.9512 1.3151 27.4873 0.778971 28.083 0.620117C28.6787 0.461263 29.2546 0.560547 29.8105 0.917969C30.4062 1.23568 30.9424 1.7321 31.4189 2.40723C31.9352 3.08236 32.3721 3.77734 32.7295 4.49219C32.2132 4.69076 31.6771 5.18717 31.1211 5.98145C30.6048 6.736 30.1283 7.55013 29.6914 8.42383C29.1751 9.45638 28.6787 10.5684 28.2021 11.7598C27.8844 12.6335 27.4674 13.7852 26.9512 15.2148C26.4349 16.6445 25.8789 18.2132 25.2832 19.9209C24.7272 21.6286 24.1315 23.3958 23.4961 25.2227C22.9004 27.0495 22.3245 28.777 21.7686 30.4053C21.2126 32.0335 20.6963 33.5029 20.2197 34.8135C19.7829 36.0843 19.4255 37.0374 19.1475 37.6729C18.7503 38.626 18.2936 39.738 17.7773 41.0088C17.2611 42.2399 16.7051 43.5107 16.1094 44.8213C15.5534 46.1318 14.9775 47.4225 14.3818 48.6934C13.7861 50.0039 13.1904 51.1755 12.5947 52.208C11.7607 53.7171 11.0459 54.8092 10.4502 55.4844C9.89421 56.1992 9.15951 56.5566 8.24609 56.5566ZM59.2979 33.1455C58.7419 33.9398 58.027 34.9326 57.1533 36.124C56.2796 37.2757 55.3662 38.4473 54.4131 39.6387C53.4997 40.7904 52.5863 41.8626 51.6729 42.8555C50.7992 43.8086 50.0645 44.4837 49.4688 44.8809C49.0716 45.1191 48.6149 45.3177 48.0986 45.4766C47.5824 45.6354 47.0462 45.7347 46.4902 45.7744C45.974 45.8141 45.4775 45.7744 45.001 45.6553C44.5244 45.5758 44.1074 45.417 43.75 45.1787C43.3926 44.9007 43.0947 44.5036 42.8564 43.9873C42.6579 43.5505 42.4593 42.9746 42.2607 42.2598C42.1019 41.5449 42.0423 40.6514 42.082 39.5791C41.1289 41.1676 40.0765 42.3988 38.9248 43.2725C37.7731 44.1064 36.681 44.722 35.6484 45.1191C34.457 45.556 33.2656 45.8141 32.0742 45.8936C31.5182 45.8936 30.9225 45.695 30.2871 45.2979C29.6517 44.9404 29.1156 44.3646 28.6787 43.5703C28.2419 42.7363 27.9639 41.6839 27.8447 40.4131C27.7256 39.1025 27.8844 37.5537 28.3213 35.7666C28.8773 33.3441 29.751 31.14 30.9424 29.1543C32.1735 27.1686 33.5039 25.4808 34.9336 24.0908C36.3633 22.6611 37.7731 21.5889 39.1631 20.874C40.5531 20.1592 41.7048 19.8415 42.6182 19.9209C43.6904 20.1195 44.5641 20.4372 45.2393 20.874C45.7952 21.2712 46.1527 21.8669 46.3115 22.6611C46.5101 23.4157 46.1924 24.4284 45.3584 25.6992C45.9144 25.5801 46.3711 25.5007 46.7285 25.4609C47.1257 25.4212 47.4235 25.4014 47.6221 25.4014C47.8604 25.4014 48.0192 25.4212 48.0986 25.4609C48.1383 25.5404 48.1582 25.7191 48.1582 25.9971C48.1582 26.2354 48.0986 26.6921 47.9795 27.3672C47.8604 28.0423 47.6816 28.9557 47.4434 30.1074C47.2051 31.2591 46.8874 32.7484 46.4902 34.5752C46.4108 34.9326 46.3314 35.2702 46.252 35.5879C46.2122 35.8659 46.1527 36.1637 46.0732 36.4814C46.0335 36.7594 45.974 37.097 45.8945 37.4941C45.8151 37.8913 45.7158 38.3877 45.5967 38.9834C45.557 39.3408 45.5371 39.738 45.5371 40.1748C45.5768 40.5719 45.6562 40.9492 45.7754 41.3066C45.8945 41.6641 46.0732 41.9619 46.3115 42.2002C46.5895 42.3988 46.9668 42.498 47.4434 42.498C47.8405 42.498 48.3568 42.2598 48.9922 41.7832C49.6276 41.2669 50.3027 40.6315 51.0176 39.877C51.7324 39.0827 52.4671 38.2288 53.2217 37.3154C54.016 36.3623 54.7507 35.4489 55.4258 34.5752C56.1009 33.7015 56.6966 32.9271 57.2129 32.252C57.7689 31.5768 58.166 31.0804 58.4043 30.7627C58.722 30.4053 59.0397 30.2067 59.3574 30.167C59.6751 30.0876 59.9134 30.167 60.0723 30.4053C60.2311 30.6436 60.251 31.001 60.1318 31.4775C60.0524 31.9541 59.7744 32.5101 59.2979 33.1455ZM41.8438 35.7666C42.0423 34.9723 42.2806 34.0391 42.5586 32.9668C42.8366 31.8945 43.0749 30.862 43.2734 29.8691C43.472 28.8763 43.611 28.0622 43.6904 27.4268C43.8096 26.7516 43.7897 26.4339 43.6309 26.4736C43.4323 26.5133 43.2139 26.5729 42.9756 26.6523C42.777 26.7318 42.5189 26.7913 42.2012 26.8311C41.8835 26.8708 41.5658 26.9303 41.248 27.0098C41.5658 26.3743 41.7445 25.8581 41.7842 25.4609C41.8636 25.0241 41.8835 24.6865 41.8438 24.4482C41.804 24.1702 41.7246 23.9518 41.6055 23.793C41.1686 23.4355 40.3942 23.7334 39.2822 24.6865C38.21 25.5999 36.959 27.3076 35.5293 29.8096C34.9336 30.8421 34.457 31.9541 34.0996 33.1455C33.7422 34.2972 33.484 35.3893 33.3252 36.4219C33.2061 37.4544 33.1862 38.3678 33.2656 39.1621C33.3451 39.9167 33.5039 40.4131 33.7422 40.6514C34.179 41.0882 34.6755 41.3066 35.2314 41.3066C35.7874 41.2669 36.3434 41.1081 36.8994 40.8301C37.4951 40.5124 38.071 40.1152 38.627 39.6387C39.2227 39.1621 39.7389 38.6657 40.1758 38.1494C40.6523 37.6331 41.0296 37.1566 41.3076 36.7197C41.6253 36.2829 41.804 35.9652 41.8438 35.7666ZM63.7061 42.9746C63.9443 43.1335 64.2422 43.2129 64.5996 43.2129C64.9967 43.2129 65.374 43.1335 65.7314 42.9746C66.1286 42.8158 66.486 42.5973 66.8037 42.3193C67.1611 42.0413 67.4193 41.6839 67.5781 41.2471C67.737 40.8102 67.737 40.1947 67.5781 39.4004C67.4193 38.5664 67.1611 37.6927 66.8037 36.7793C66.486 35.8262 66.1286 34.873 65.7314 33.9199C65.3343 32.9668 64.9967 32.0931 64.7188 31.2988C64.4805 30.7031 64.2819 30.1471 64.123 29.6309C63.9642 29.194 63.8053 28.777 63.6465 28.3799C63.5273 27.943 63.4281 27.6452 63.3486 27.4863C63.1501 27.804 62.7926 28.3203 62.2764 29.0352C61.7998 29.75 61.2637 30.5046 60.668 31.2988C60.112 32.0534 59.5758 32.7682 59.0596 33.4434C58.5433 34.0788 58.1859 34.5156 57.9873 34.7539C57.6696 35.1113 57.3519 35.3298 57.0342 35.4092C56.7562 35.4489 56.5179 35.3893 56.3193 35.2305C56.1208 35.0319 56.0016 34.7738 55.9619 34.4561C55.9619 34.0986 56.1208 33.6816 56.4385 33.2051C56.6768 32.8874 57.0342 32.391 57.5107 31.7158C57.9873 31.001 58.4639 30.2861 58.9404 29.5713C59.417 28.8167 59.8538 28.1615 60.251 27.6055C60.6481 27.0098 60.8665 26.6523 60.9062 26.5332C60.9857 26.2155 60.8665 25.7985 60.5488 25.2822C60.2708 24.766 60.2311 24.1702 60.4297 23.4951C60.5885 22.9391 60.946 22.3037 61.502 21.5889C62.0579 20.8343 62.7132 20.1592 63.4678 19.5635C64.2223 18.9678 64.9967 18.5309 65.791 18.2529C66.5853 17.9352 67.3001 17.9352 67.9355 18.2529C68.4518 18.5706 68.8688 18.9281 69.1865 19.3252C69.5042 19.6826 69.6234 20.0599 69.5439 20.457C69.4645 20.6556 69.3454 20.9137 69.1865 21.2314C69.0277 21.5492 68.7894 21.9463 68.4717 22.4229C68.154 22.8597 67.6973 23.4355 67.1016 24.1504C67.2207 25.0638 67.3796 25.8978 67.5781 26.6523C67.8164 27.4069 68.0348 28.0622 68.2334 28.6182C68.4717 29.2933 68.7298 29.9089 69.0078 30.4648C69.3652 31.1797 69.7425 31.9144 70.1396 32.6689C70.5368 33.4235 70.8942 34.1781 71.2119 34.9326C71.5296 35.6475 71.7878 36.3226 71.9863 36.958C72.1849 37.5934 72.2445 38.1296 72.165 38.5664C72.0459 39.2415 71.6885 40.0557 71.0928 41.0088C70.5368 41.9619 69.8219 42.8952 68.9482 43.8086C68.1143 44.6823 67.1413 45.4368 66.0293 46.0723C64.957 46.7077 63.8252 47.0254 62.6338 47.0254C61.7998 47.0254 60.9857 46.7673 60.1914 46.251C59.4368 45.7347 58.7816 45.139 58.2256 44.4639C57.7093 43.749 57.3122 43.054 57.0342 42.3789C56.7959 41.7038 56.776 41.1875 56.9746 40.8301C57.2129 40.3535 57.4313 39.9762 57.6299 39.6982C57.8285 39.4202 58.1263 39.1025 58.5234 38.7451C58.6823 38.626 58.8809 38.487 59.1191 38.3281C59.3177 38.209 59.5957 38.0898 59.9531 37.9707C60.3105 37.8516 60.7275 37.7126 61.2041 37.5537C61.6012 38.7848 61.9587 39.7578 62.2764 40.4727C62.5941 41.1478 62.8522 41.6839 63.0508 42.0811C63.2891 42.5179 63.5075 42.8158 63.7061 42.9746ZM94.3848 35.5283C93.9876 37.0374 93.4515 38.4473 92.7764 39.7578C92.1012 41.0684 91.2871 42.2002 90.334 43.1533C89.4206 44.1064 88.3682 44.8411 87.1768 45.3574C86.0251 45.9134 84.7542 46.1914 83.3643 46.1914C81.736 46.1914 80.4453 45.834 79.4922 45.1191C78.5788 44.444 77.8838 43.5902 77.4072 42.5576C76.9704 41.5251 76.7122 40.3932 76.6328 39.1621C76.5137 37.931 76.4541 36.7793 76.4541 35.707C76.4541 34.9525 76.5534 34.1185 76.752 33.2051C76.9108 32.2917 77.1491 31.3584 77.4668 30.4053C77.7845 29.4521 78.1816 28.499 78.6582 27.5459C79.1745 26.5928 79.7702 25.7191 80.4453 24.9248C80.6836 24.2497 81.041 23.654 81.5176 23.1377C82.0339 22.6214 82.6097 22.2044 83.2451 21.8867C83.9202 21.5293 84.6351 21.2712 85.3896 21.1123C86.1442 20.9137 86.8789 20.8145 87.5938 20.8145C87.7129 20.8145 87.8122 20.8343 87.8916 20.874C88.0107 20.9137 88.1299 20.9535 88.249 20.9932C88.7653 21.0329 89.4007 21.2314 90.1553 21.5889C90.9495 21.9463 91.7041 22.4824 92.4189 23.1973C93.1735 23.9121 93.8089 24.8255 94.3252 25.9375C94.8415 27.0098 95.0996 28.3203 95.0996 29.8691C95.0996 30.1868 95.0798 30.584 95.04 31.0605C95.0003 31.4974 94.9606 31.8747 94.9209 32.1924C95.8343 31.835 96.7874 31.3981 97.7803 30.8818C98.7731 30.3656 99.7262 29.8294 100.64 29.2734C101.593 28.6777 102.466 28.082 103.261 27.4863C104.055 26.8906 104.69 26.3545 105.167 25.8779C105.564 25.5205 105.902 25.3219 106.18 25.2822C106.458 25.2425 106.656 25.3219 106.775 25.5205C106.895 25.7191 106.914 25.9971 106.835 26.3545C106.756 26.7119 106.537 27.109 106.18 27.5459C105.981 27.7842 105.465 28.2607 104.631 28.9756C103.837 29.6904 102.883 30.4648 101.771 31.2988C100.66 32.1328 99.4482 32.9469 98.1377 33.7412C96.8271 34.5355 95.5762 35.1312 94.3848 35.5283ZM84.3174 26.4736C84.1982 26.8311 84.1387 27.2083 84.1387 27.6055C84.1387 28.2409 84.1784 28.916 84.2578 29.6309C84.3372 30.306 84.5358 30.9215 84.8535 31.4775C85.1712 32.0335 85.6676 32.5101 86.3428 32.9072C87.0576 33.2646 88.0306 33.4434 89.2617 33.4434C89.4603 33.4434 89.6589 33.4434 89.8574 33.4434C90.056 33.4036 90.2546 33.3639 90.4531 33.3242C90.5723 32.8079 90.6715 32.3512 90.751 31.9541C90.8701 31.5173 90.9297 31.14 90.9297 30.8223C91.0091 30.0677 91.0091 29.2933 90.9297 28.499C90.8503 27.7048 90.6914 26.9899 90.4531 26.3545C90.2546 25.6794 89.9766 25.1432 89.6191 24.7461C89.3014 24.3092 88.9043 24.0908 88.4277 24.0908C87.6732 24.0908 86.9385 24.3092 86.2236 24.7461C85.5485 25.1432 84.9131 25.7191 84.3174 26.4736ZM80.5049 36.958C80.5049 37.6729 80.5446 38.3877 80.624 39.1025C80.7035 39.7777 80.8623 40.3932 81.1006 40.9492C81.3389 41.4655 81.6566 41.9023 82.0537 42.2598C82.4508 42.5775 82.9671 42.7363 83.6025 42.7363C84.3174 42.7363 84.9727 42.5775 85.5684 42.2598C86.1641 41.9023 86.7002 41.4655 87.1768 40.9492C87.6533 40.3932 88.0703 39.7777 88.4277 39.1025C88.8249 38.3877 89.1624 37.653 89.4404 36.8984C89.1624 36.9382 88.8844 36.9779 88.6064 37.0176C88.3682 37.0176 88.0902 37.0176 87.7725 37.0176C86.2633 37.0176 84.9528 36.5807 83.8408 35.707C82.7686 34.7936 81.9346 33.6419 81.3389 32.252C81.1006 33.0859 80.902 33.9001 80.7432 34.6943C80.5843 35.4886 80.5049 36.2432 80.5049 36.958ZM98.4951 44.7021C98.2171 45.139 97.9193 45.417 97.6016 45.5361C97.2441 45.695 96.9463 45.7148 96.708 45.5957C96.43 45.5163 96.2513 45.3177 96.1719 45C96.0924 44.6823 96.1719 44.2852 96.4102 43.8086C96.5293 43.5703 96.8073 43.0342 97.2441 42.2002C97.6413 41.3662 98.1377 40.3734 98.7334 39.2217C99.2894 38.0303 99.9049 36.7594 100.58 35.4092C101.255 34.0192 101.891 32.7087 102.486 31.4775C103.122 30.2464 103.698 29.1543 104.214 28.2012C104.73 27.2083 105.107 26.4935 105.346 26.0566C104.909 25.6595 104.611 25.3815 104.452 25.2227C104.293 25.0241 104.174 24.627 104.095 24.0312C104.015 23.515 104.134 22.8398 104.452 22.0059C104.77 21.1719 105.187 20.3776 105.703 19.623C106.219 18.8288 106.795 18.1536 107.431 17.5977C108.066 17.0417 108.682 16.7637 109.277 16.7637C110.389 16.7637 111.164 17.1211 111.601 17.8359C112.077 18.5508 112.355 19.2855 112.435 20.04C112.514 20.5563 112.474 21.2116 112.315 22.0059C112.157 22.8001 111.859 23.515 111.422 24.1504C111.541 24.2298 111.7 24.3291 111.898 24.4482C112.097 24.5277 112.415 24.5674 112.852 24.5674C113.487 24.5674 113.924 24.5277 114.162 24.4482C114.44 24.3688 114.857 24.3291 115.413 24.3291C116.088 24.3291 116.644 24.5078 117.081 24.8652C117.518 25.1829 117.875 25.5999 118.153 26.1162C118.431 26.5928 118.63 27.1289 118.749 27.7246C118.908 28.2806 119.007 28.7969 119.047 29.2734C119.166 30.2663 118.908 31.2988 118.272 32.3711C117.637 33.4434 116.863 34.6149 115.949 35.8857C115.393 36.68 114.837 37.5736 114.281 38.5664C113.725 39.5592 113.487 40.4528 113.566 41.2471C113.646 41.7633 113.785 42.1803 113.983 42.498C114.182 42.8158 114.738 42.9746 115.651 42.9746C116.326 42.9746 117.061 42.7363 117.855 42.2598C118.689 41.7435 119.523 41.1081 120.357 40.3535C121.231 39.5592 122.085 38.7054 122.919 37.792C123.753 36.8389 124.527 35.9255 125.242 35.0518C125.957 34.1383 126.553 33.3242 127.029 32.6094C127.546 31.8945 127.923 31.3783 128.161 31.0605C128.36 30.7428 128.618 30.5244 128.936 30.4053C129.253 30.2861 129.531 30.2861 129.77 30.4053C130.008 30.5244 130.147 30.7627 130.187 31.1201C130.266 31.4775 130.127 31.9541 129.77 32.5498C129.531 32.9469 129.114 33.5824 128.519 34.4561C127.963 35.3298 127.268 36.3027 126.434 37.375C125.639 38.4473 124.746 39.5592 123.753 40.7109C122.76 41.8229 121.708 42.8555 120.596 43.8086C119.523 44.722 118.431 45.4766 117.319 46.0723C116.247 46.668 115.215 46.9658 114.222 46.9658C113.189 46.9658 112.335 46.7673 111.66 46.3701C110.985 45.973 110.429 45.4964 109.992 44.9404C109.595 44.3447 109.297 43.7093 109.099 43.0342C108.94 42.3193 108.88 41.6641 108.92 41.0684C108.96 40.5918 109.079 40.0954 109.277 39.5791C109.516 39.0231 109.774 38.4671 110.052 37.9111C110.369 37.3154 110.687 36.7396 111.005 36.1836C111.362 35.5879 111.68 35.012 111.958 34.4561C112.633 33.3044 113.169 32.3314 113.566 31.5371C114.003 30.7031 114.222 30.0081 114.222 29.4521C114.222 29.0947 114.142 28.777 113.983 28.499C113.825 28.221 113.566 28.082 113.209 28.082C112.971 28.082 112.792 28.1019 112.673 28.1416C112.593 28.1416 112.494 28.1416 112.375 28.1416C112.296 28.1416 112.157 28.1615 111.958 28.2012C111.799 28.2012 111.541 28.2012 111.184 28.2012C110.667 28.2012 110.23 28.1217 109.873 27.9629C109.516 27.804 109.178 27.6849 108.86 27.6055C108.701 27.8835 108.344 28.4792 107.788 29.3926C107.232 30.306 106.577 31.3783 105.822 32.6094C105.107 33.8405 104.333 35.1312 103.499 36.4814C102.705 37.8317 101.95 39.1025 101.235 40.2939C100.521 41.4456 99.9248 42.4385 99.4482 43.2725C98.932 44.0667 98.6143 44.5433 98.4951 44.7021ZM156.1 33.1455C155.544 33.9398 154.829 34.9326 153.955 36.124C153.081 37.2757 152.168 38.4473 151.215 39.6387C150.301 40.7904 149.388 41.8626 148.475 42.8555C147.601 43.8086 146.866 44.4837 146.271 44.8809C145.873 45.1191 145.417 45.3177 144.9 45.4766C144.384 45.6354 143.848 45.7347 143.292 45.7744C142.776 45.8141 142.279 45.7744 141.803 45.6553C141.326 45.5758 140.909 45.417 140.552 45.1787C140.194 44.9007 139.896 44.5036 139.658 43.9873C139.46 43.5505 139.261 42.9746 139.062 42.2598C138.904 41.5449 138.844 40.6514 138.884 39.5791C137.931 41.1676 136.878 42.3988 135.727 43.2725C134.575 44.1064 133.483 44.722 132.45 45.1191C131.259 45.556 130.067 45.8141 128.876 45.8936C128.32 45.8936 127.724 45.695 127.089 45.2979C126.453 44.9404 125.917 44.3646 125.48 43.5703C125.044 42.7363 124.766 41.6839 124.646 40.4131C124.527 39.1025 124.686 37.5537 125.123 35.7666C125.679 33.3441 126.553 31.14 127.744 29.1543C128.975 27.1686 130.306 25.4808 131.735 24.0908C133.165 22.6611 134.575 21.5889 135.965 20.874C137.355 20.1592 138.507 19.8415 139.42 19.9209C140.492 20.1195 141.366 20.4372 142.041 20.874C142.597 21.2712 142.954 21.8669 143.113 22.6611C143.312 23.4157 142.994 24.4284 142.16 25.6992C142.716 25.5801 143.173 25.5007 143.53 25.4609C143.927 25.4212 144.225 25.4014 144.424 25.4014C144.662 25.4014 144.821 25.4212 144.9 25.4609C144.94 25.5404 144.96 25.7191 144.96 25.9971C144.96 26.2354 144.9 26.6921 144.781 27.3672C144.662 28.0423 144.483 28.9557 144.245 30.1074C144.007 31.2591 143.689 32.7484 143.292 34.5752C143.213 34.9326 143.133 35.2702 143.054 35.5879C143.014 35.8659 142.954 36.1637 142.875 36.4814C142.835 36.7594 142.776 37.097 142.696 37.4941C142.617 37.8913 142.518 38.3877 142.398 38.9834C142.359 39.3408 142.339 39.738 142.339 40.1748C142.379 40.5719 142.458 40.9492 142.577 41.3066C142.696 41.6641 142.875 41.9619 143.113 42.2002C143.391 42.3988 143.769 42.498 144.245 42.498C144.642 42.498 145.159 42.2598 145.794 41.7832C146.429 41.2669 147.104 40.6315 147.819 39.877C148.534 39.0827 149.269 38.2288 150.023 37.3154C150.818 36.3623 151.552 35.4489 152.228 34.5752C152.903 33.7015 153.498 32.9271 154.015 32.252C154.571 31.5768 154.968 31.0804 155.206 30.7627C155.524 30.4053 155.841 30.2067 156.159 30.167C156.477 30.0876 156.715 30.167 156.874 30.4053C157.033 30.6436 157.053 31.001 156.934 31.4775C156.854 31.9541 156.576 32.5101 156.1 33.1455ZM138.646 35.7666C138.844 34.9723 139.082 34.0391 139.36 32.9668C139.638 31.8945 139.877 30.862 140.075 29.8691C140.274 28.8763 140.413 28.0622 140.492 27.4268C140.611 26.7516 140.591 26.4339 140.433 26.4736C140.234 26.5133 140.016 26.5729 139.777 26.6523C139.579 26.7318 139.321 26.7913 139.003 26.8311C138.685 26.8708 138.368 26.9303 138.05 27.0098C138.368 26.3743 138.546 25.8581 138.586 25.4609C138.665 25.0241 138.685 24.6865 138.646 24.4482C138.606 24.1702 138.526 23.9518 138.407 23.793C137.97 23.4355 137.196 23.7334 136.084 24.6865C135.012 25.5999 133.761 27.3076 132.331 29.8096C131.735 30.8421 131.259 31.9541 130.901 33.1455C130.544 34.2972 130.286 35.3893 130.127 36.4219C130.008 37.4544 129.988 38.3678 130.067 39.1621C130.147 39.9167 130.306 40.4131 130.544 40.6514C130.981 41.0882 131.477 41.3066 132.033 41.3066C132.589 41.2669 133.145 41.1081 133.701 40.8301C134.297 40.5124 134.873 40.1152 135.429 39.6387C136.024 39.1621 136.541 38.6657 136.978 38.1494C137.454 37.6331 137.831 37.1566 138.109 36.7197C138.427 36.2829 138.606 35.9652 138.646 35.7666Z" fill="black"/>
</svg>
